# xmcd
#
# Track frame offsets:
#	150
#	14775
#	28800
#	43575
#	57000
#	68700
#	81675
#	94575
#	109800
#	123300
#	134625
#	150525
#
# Disc length: 2156 seconds
#
# Revision: 0
# Processed by: cddbd v1.5.1PL0 Copyright (c) Steve Scherf et al.
# Submitted via: audiograbber 1.83.01
#
DISCID=a6086a0c
DTITLE=Various Artist - Νησιώτικα
DYEAR=1996
DGENRE=Νησιώτικο
TTITLE0=Κονιτοπούλου Ειρήνη - Αρμενάκι
TTITLE1=Κονιτοπούλου Ειρήνη - Να ζήσουν τα ναυτάκια μας
TTITLE2=Κονιτοπούλου Αγγελική - Μα γιάντα την τραγιάσκα σου
TTITLE3=Κονιτοπούλου Ειρήνη - Βίρα τις άγκυρες
TTITLE4=Κονιτοπούλου Ειρήνη - Τι έχω μάνα με ρωτάς
TTITLE5=Κονιτόπουλος Κώστας - Ψοφήσανε τα πρόβατα
TTITLE6=Κονιτοπούλου Ειρήνη - Με κοτσάκια φανερώνω
TTITLE7=Κονιτόπουλος Γιώργος - Στο σπίτι μου το πατρικό
TTITLE8=Κονιτοπούλου Ειρήνη - Ελα να 'μαστε τα δυό μας
TTITLE9=Κονιτόπουλος Γιώργος - Η αγάπη μου στην Ικαρία
TTITLE10=Κονιτοπούλου Ειρήνη - Πάρε με στη βάρκα μέσα
TTITLE11=Κονιτοπούλου Ειρήνη - Ελα να πάμε σ' ένα μέρος
EXTD=
EXTT0=
EXTT1=
EXTT2=
EXTT3=
EXTT4=
EXTT5=
EXTT6=
EXTT7=
EXTT8=
EXTT9=
EXTT10=
EXTT11=
PLAYORDER=
